<?xml version="1.0" ?><svg height="60px" version="1.1" viewBox="0 0 60 60" width="60px" xmlns="http://www.w3.org/2000/svg" xmlns:sketch="http://www.bohemiancoding.com/sketch/ns" xmlns:xlink="http://www.w3.org/1999/xlink"><title/><defs/><g fill="none" fill-rule="evenodd" id="flat" stroke="none" stroke-width="1"><g id="google+"><path d="M30,60 C46.5685433,60 60,46.5685433 60,30 C60,13.4314567 46.5685433,0 30,0 C13.4314567,0 0,13.4314567 0,30 C0,46.5685433 13.4314567,60 30,60 Z" fill="#CA4638" id="Google+"/><path d="M27.9622852,27.3677615 C28.9418727,26.3850463 29.027571,25.0213805 29.027571,24.2532237 C29.027571,21.1840371 27.1941284,16.4071406 23.6542269,16.4071406 C22.5454665,16.4071406 21.3516333,16.9619899 20.6685493,17.815845 C19.9438672,18.711298 19.7299343,19.8613438 19.7299343,20.970417 C19.7299343,23.8269217 21.3932314,28.5615947 25.060742,28.5615947 C26.126966,28.561282 27.2785756,28.0492817 27.9622852,27.3677615 L27.9622852,27.3677615 Z M26.7243518,35.4693756 C26.3831225,35.425901 26.1698152,35.425901 25.7441387,35.425901 C25.3600604,35.425901 23.0568412,35.5115992 21.265935,36.1092978 C20.3279456,36.450527 17.5987372,37.4729637 17.5987372,40.5011777 C17.5987372,43.5287662 20.5409402,45.7028124 25.1042166,45.7028124 C29.198342,45.7028124 31.372701,43.7420735 31.372701,41.0985634 C31.372701,38.9229533 29.9658732,37.7725948 26.7243518,35.4693756 L26.7243518,35.4693756 Z M39.2307692,31.1538462 L34.6153846,31.1538462 L34.6153846,28.8461538 L39.2307692,28.8461538 L39.2307692,24.2307692 L41.5384615,24.2307692 L41.5384615,28.8461538 L46.1538462,28.8461538 L46.1538462,31.1538462 L41.5384615,31.1538462 L41.5384615,35.7692308 L39.2307692,35.7692308 L39.2307692,31.1538462 Z M29.7525658,16.5347497 C30.7327789,17.3454428 32.7801543,19.0506507 32.7801543,22.2924848 C32.7801543,25.448308 30.9889354,26.940834 29.198342,28.347349 C28.6441181,28.9018857 28.0035705,29.4992714 28.0035705,30.4375736 C28.0035705,31.3758758 28.6441181,31.8878761 29.1120182,32.2710162 L30.6480189,33.4642238 C32.5249361,35.0418226 34.2298312,36.4927506 34.2298312,39.4358919 C34.2298312,43.4433807 30.3490133,47.4952824 23.013992,47.4952824 C16.8315187,47.4952824 13.8461538,44.5530794 13.8461538,41.3966308 C13.8461538,39.8612556 14.6139978,37.6868966 17.1308371,36.193745 C19.7740345,34.5729843 23.3570979,34.3615535 25.2749876,34.2323806 C24.6779146,33.4642238 23.9957689,32.6532179 23.9957689,31.3327139 C23.9957689,30.6077191 24.2090763,30.1804788 24.4223837,29.6691041 C23.9522943,29.7113277 23.4843942,29.7551151 23.057154,29.7551151 C18.5376649,29.7551151 15.9789148,26.3847336 15.9789148,23.0593905 C15.9789148,21.0986516 16.8740551,18.922416 18.7078104,17.3448172 C21.1389515,15.3412292 24.0383053,15 26.3408989,15 L35.1252843,15 L32.3960759,16.5341241 L29.7525658,16.5341241 L29.7525658,16.5347497 Z" fill="#FFFFFF" id="g+"/></g></g></svg>